<svg width="38" height="37" viewBox="0 0 38 37" fill="none" xmlns="http://www.w3.org/2000/svg">
<g id="streamline:computer-logo-facebook-1-media-facebook-social" clip-path="url(#clip0_118_1185)">
<path id="Vector" d="M1.32568 32.6428V4.35713C1.32568 3.67515 1.60507 3.0211 2.10237 2.53886C2.59968 2.05662 3.27417 1.78571 3.97747 1.78571H33.1471C33.8504 1.78571 34.5249 2.05662 35.0222 2.53886C35.5195 3.0211 35.7989 3.67515 35.7989 4.35713V32.6428C35.7989 33.3248 35.5195 33.9789 35.0222 34.4611C34.5249 34.9434 33.8504 35.2143 33.1471 35.2143H25.1918V23.0257H27.0745C27.5035 23.0257 27.915 22.8604 28.2183 22.5663C28.5217 22.2721 28.6921 21.8731 28.6921 21.4571V19.4771C28.6921 19.0611 28.5217 18.6622 28.2183 18.368C27.915 18.0738 27.5035 17.9086 27.0745 17.9086H25.2978V15.4914C25.2978 13.3314 26.3055 13.3314 27.3132 13.3314H28.6126C28.826 13.3399 29.0387 13.3029 29.2358 13.2229C29.4328 13.1429 29.6093 13.022 29.7528 12.8686C29.9069 12.7263 30.0289 12.5546 30.1111 12.3643C30.1932 12.1739 30.2338 11.9691 30.2301 11.7628V9.85999C30.2372 9.6506 30.2017 9.44191 30.1255 9.24585C30.0494 9.04979 29.9341 8.8702 29.7864 8.71736C29.6386 8.56452 29.4612 8.44142 29.2644 8.3551C29.0675 8.26878 28.855 8.22092 28.6391 8.21428H25.5895C24.6997 8.18184 23.8132 8.33709 22.9913 8.66931C22.1694 9.00153 21.4317 9.50279 20.8291 10.1385C20.2265 10.7742 19.7734 11.5291 19.501 12.3512C19.2287 13.1733 19.1437 14.0429 19.2518 14.9V17.9086H17.5546C17.34 17.9051 17.1268 17.9432 16.9274 18.0205C16.7281 18.0978 16.5466 18.2128 16.3936 18.3588C16.2406 18.5048 16.1191 18.6789 16.0361 18.8709C15.9532 19.0629 15.9105 19.269 15.9105 19.4771V21.4571C15.9105 21.6653 15.9532 21.8714 16.0361 22.0634C16.1191 22.2554 16.2406 22.4295 16.3936 22.5755C16.5466 22.7215 16.7281 22.8365 16.9274 22.9138C17.1268 22.9911 17.34 23.0291 17.5546 23.0257H19.2518V35.2143H3.97747C3.27417 35.2143 2.59968 34.9434 2.10237 34.4611C1.60507 33.9789 1.32568 33.3248 1.32568 32.6428Z" stroke="white" stroke-width="2" stroke-linecap="round" stroke-linejoin="round"/>
</g>
<defs>
<clipPath id="clip0_118_1185">
<rect width="37.125" height="36" fill="white" transform="translate(0 0.5)"/>
</clipPath>
</defs>
</svg>
