<svg width="38" height="37" viewBox="0 0 38 37" fill="none" xmlns="http://www.w3.org/2000/svg">
<g id="lucide:instagram">
<g id="Group">
<path id="Vector" d="M26.4219 3.5H10.9531C6.68155 3.5 3.21875 6.85786 3.21875 11V26C3.21875 30.1421 6.68155 33.5 10.9531 33.5H26.4219C30.6935 33.5 34.1562 30.1421 34.1562 26V11C34.1562 6.85786 30.6935 3.5 26.4219 3.5Z" stroke="white" stroke-width="2" stroke-linecap="round" stroke-linejoin="round"/>
<path id="Vector_2" d="M27.1953 10.25H27.2108M24.875 17.555C25.0659 18.8034 24.846 20.0783 24.2466 21.1985C23.6472 22.3187 22.6987 23.2271 21.5362 23.7945C20.3737 24.3619 19.0563 24.5594 17.7714 24.3589C16.4865 24.1584 15.2994 23.5701 14.3792 22.6777C13.4589 21.7854 12.8522 20.6343 12.6455 19.3883C12.4387 18.1423 12.6424 16.8648 13.2275 15.7376C13.8126 14.6103 14.7494 13.6906 15.9046 13.1094C17.0598 12.5281 18.3746 12.3149 19.662 12.5C20.9752 12.6888 22.1909 13.2822 23.1296 14.1925C24.0683 15.1027 24.6802 16.2816 24.875 17.555Z" stroke="white" stroke-width="2" stroke-linecap="round" stroke-linejoin="round"/>
</g>
</g>
</svg>
