<svg width="38" height="37" viewBox="0 0 38 37" fill="none" xmlns="http://www.w3.org/2000/svg">
<g id="streamline:computer-logo-twitter-media-twitter-social" clip-path="url(#clip0_118_1191)">
<path id="Vector" d="M10.8572 24.6714C8.96368 26.1136 6.7903 27.1718 4.46642 27.7828C4.21045 27.8729 3.9893 28.0372 3.83301 28.2535C3.67672 28.4697 3.59288 28.7273 3.59288 28.9914C3.59288 29.2554 3.67672 29.5131 3.83301 29.7293C3.9893 29.9456 4.21045 30.1099 4.46642 30.2C22.8168 37.5028 34.4846 26.2143 32.7079 13.6914L35.6779 7.72568H32.2306C27.9347 2.60854 16.532 2.86568 18.4148 13.7685C18.4148 13.7685 12.3157 14.8228 4.51945 7.3914C4.33911 7.21874 4.11152 7.09983 3.86363 7.04872C3.61574 6.99762 3.35795 7.01648 3.12077 7.10307C2.88359 7.18965 2.67698 7.34033 2.52539 7.53727C2.37379 7.7342 2.28358 7.96914 2.26543 8.21426C1.44108 11.5002 1.85362 14.9635 3.42878 17.9806C5.00393 20.9978 7.6382 23.3704 10.8572 24.6714Z" stroke="white" stroke-width="2" stroke-linecap="round" stroke-linejoin="round"/>
</g>
<defs>
<clipPath id="clip0_118_1191">
<rect width="37.125" height="36" fill="white" transform="translate(0.25 0.5)"/>
</clipPath>
</defs>
</svg>
